<svg width="291" height="57" viewBox="0 0 291 57" fill="none" xmlns="http://www.w3.org/2000/svg">
<g filter="url(#filter0_d_343_2279)">
<path d="M4.7536 6.84989H20.7697L45.1943 48.6506H29.1782L4.7536 6.84989Z" fill="black"/>
<path d="M69.6174 6.84989H53.6013L29.1767 48.6506H45.1928L69.6174 6.84989Z" fill="#22C55E"/>
<path d="M45.63 6.84989H29.6139L17.1654 28.1522H33.1816L45.63 6.84989Z" fill="#E84D8A"/>
<path d="M24.7751 0H8.75902L4.74999 6.85204H20.7661L24.7751 0Z" fill="#33BFFF"/>
<path d="M83.8423 45.2163V13.3649H93.4431V17.9707C94.3945 16.3274 95.6919 15.0516 97.3353 14.1434C99.022 13.192 100.968 12.7162 103.174 12.7162C105.423 12.7162 107.325 13.2136 108.882 14.2083C110.482 15.2029 111.693 16.7166 112.515 18.7492C113.51 16.8463 114.937 15.3759 116.796 14.338C118.699 13.2568 120.797 12.7162 123.089 12.7162C126.722 12.7162 129.425 13.819 131.198 16.0246C132.971 18.187 133.857 21.5386 133.857 26.0795V45.2163H124.062V26.4039C124.062 24.2848 123.716 22.7495 123.024 21.7981C122.375 20.8034 121.251 20.3061 119.651 20.3061C117.791 20.3061 116.342 20.9548 115.304 22.2522C114.267 23.5496 113.748 25.3876 113.748 27.7662V45.2163H103.952V26.4039C103.952 24.2848 103.606 22.7495 102.914 21.7981C102.222 20.8034 101.098 20.3061 99.5409 20.3061C97.6813 20.3061 96.2325 20.9548 95.1946 22.2522C94.1567 23.5496 93.6377 25.3876 93.6377 27.7662V45.2163H83.8423Z" fill="#16A34A"/>
<path d="M156.995 45.9299C153.578 45.9299 150.594 45.2596 148.043 43.9189C145.534 42.535 143.588 40.6105 142.204 38.1454C140.82 35.6371 140.129 32.6747 140.129 29.2582C140.129 25.8849 140.82 22.9658 142.204 20.5007C143.588 17.9924 145.534 16.0679 148.043 14.7272C150.594 13.3866 153.578 12.7162 156.995 12.7162C160.411 12.7162 163.374 13.3866 165.882 14.7272C168.434 16.0679 170.401 17.9924 171.785 20.5007C173.212 22.9658 173.926 25.8849 173.926 29.2582C173.926 32.6747 173.212 35.6371 171.785 38.1454C170.401 40.6105 168.434 42.535 165.882 43.9189C163.374 45.2596 160.411 45.9299 156.995 45.9299ZM156.995 38.5995C159.071 38.5995 160.757 37.8427 162.055 36.3291C163.395 34.8154 164.066 32.4585 164.066 29.2582C164.066 26.1012 163.395 23.7875 162.055 22.3171C160.757 20.8034 159.071 20.0466 156.995 20.0466C154.919 20.0466 153.232 20.8034 151.935 22.3171C150.638 23.7875 149.989 26.1012 149.989 29.2582C149.989 32.4585 150.638 34.8154 151.935 36.3291C153.232 37.8427 154.919 38.5995 156.995 38.5995Z" fill="#16A34A"/>
<path d="M180.21 45.2163V13.3649H189.811V18.0356C190.892 16.3057 192.341 14.9867 194.157 14.0785C195.973 13.1703 198.006 12.7162 200.255 12.7162C204.017 12.7162 206.828 13.819 208.688 16.0246C210.548 18.187 211.477 21.5386 211.477 26.0795V45.2163H201.682V26.5336C201.682 24.328 201.271 22.7495 200.449 21.7981C199.628 20.8034 198.417 20.3061 196.817 20.3061C194.741 20.3061 193.076 20.9548 191.822 22.2522C190.611 23.5496 190.005 25.2795 190.005 27.4418V45.2163H180.21Z" fill="#16A34A"/>
<path d="M235.656 45.9299C231.894 45.9299 228.65 45.2596 225.926 43.9189C223.244 42.535 221.169 40.6105 219.698 38.1454C218.271 35.6371 217.557 32.6963 217.557 29.3231C217.557 26.0363 218.249 23.1604 219.633 20.6953C221.06 18.187 222.985 16.2409 225.407 14.857C227.872 13.4298 230.705 12.7162 233.905 12.7162C238.532 12.7162 242.208 14.1866 244.933 17.1274C247.657 20.025 249.02 23.9604 249.02 28.9338V31.3989H226.899C227.245 33.9072 228.153 35.7452 229.623 36.9129C231.137 38.0373 233.213 38.5995 235.851 38.5995C237.581 38.5995 239.332 38.3401 241.105 37.8211C242.879 37.3021 244.479 36.5021 245.906 35.4209L248.501 41.9728C246.901 43.1837 244.933 44.1568 242.597 44.892C240.305 45.5839 237.992 45.9299 235.656 45.9299ZM234.294 19.2033C232.218 19.2033 230.532 19.8304 229.234 21.0845C227.98 22.3387 227.202 24.0902 226.899 26.339H240.911C240.651 21.5819 238.446 19.2033 234.294 19.2033Z" fill="#16A34A"/>
<path d="M263.877 45.2163L249.995 13.3649H260.31L268.289 33.6045L276.527 13.3649H286.193L272.116 45.2163H263.877Z" fill="#16A34A"/>
</g>
<defs>
<filter id="filter0_d_343_2279" x="0.75" y="0" width="289.443" height="56.6506" filterUnits="userSpaceOnUse" color-interpolation-filters="sRGB">
<feFlood flood-opacity="0" result="BackgroundImageFix"/>
<feColorMatrix in="SourceAlpha" type="matrix" values="0 0 0 0 0 0 0 0 0 0 0 0 0 0 0 0 0 0 127 0" result="hardAlpha"/>
<feOffset dy="4"/>
<feGaussianBlur stdDeviation="2"/>
<feComposite in2="hardAlpha" operator="out"/>
<feColorMatrix type="matrix" values="0 0 0 0 0 0 0 0 0 0 0 0 0 0 0 0 0 0 0.25 0"/>
<feBlend mode="normal" in2="BackgroundImageFix" result="effect1_dropShadow_343_2279"/>
<feBlend mode="normal" in="SourceGraphic" in2="effect1_dropShadow_343_2279" result="shape"/>
</filter>
</defs>
</svg>
